Patient4_TMGait_0pt4_01_left_13_EMG.mot
version=1
nRows=30
nColumns=33
inDegrees=no
endheader
time	1LAddLong	2LGlutMax	3LGlutMed	4LIliopsoas	5LSemiMemb	6LBicFemLong	7LRecFem	8LVastMed	9LVastLat	10LGasMed	11LTibAnt	12lTibPost	13LPeroneusLong	14LSol	15LExtDigLong	16LFlexDigLong	17RAddLong	18RGlutMax	19RGlutMed	20RIliopsoas	21RSemiMemb	22RBicFemLong	23RRecFem	24RVastMed	25RVastLat	26RGasMed	27RTibAnt	28RTibPost	29RPeroneusLong	30RSol	31RExtDigLong	32RFlexDigLong
16.482	0.005646	0.14694	-0.13962	0.005798	-0.060577	-0.09613	0.23666	-0.013885	-0.31189	-0.019073	-0.097961	0.1915	-0.065765	-0.047607	-0.03006	0.22385	0.022736	0.33814	-0.42526	0.063629	-0.047913	0.009613	0.38162	-0.075226	-0.009613	-0.012054	-0.032806	-0.014954	0.064697	0.20233	0.003204	-0.018768
16.483	0.01297	0.13931	-0.03891	-0.005341	-0.086517	0.002441	0.1886	0.008545	-0.21896	-0.066528	-0.074005	0.18448	-0.007477	-0.097046	-0.13702	0.45685	-0.006256	0.27908	-0.30792	0.016022	-0.061798	-0.015869	0.40512	-0.08316	-0.010223	-0.011292	-0.041504	-0.014343	-0.31662	0.04715	-0.000763	-0.019684
16.484	0.024261	0.15182	0.14786	-0.016479	-0.095215	0.083313	0.055389	0.056763	-0.22232	-0.091553	-0.097198	0.19653	0.04364	-0.13397	-0.080872	-0.15335	0.01236	0.2066	-0.28793	-0.048828	-0.033569	-0.018768	0.37354	-0.079651	0.014038	-0.00351	-0.068359	-0.012207	0.36941	0.034485	0.003967	-0.016632
16.485	0.040436	0.19821	0.012665	0.024719	-0.08316	0.045471	-0.036621	0.044403	-0.18082	-0.067749	-0.050964	0.15121	0.056458	-0.19928	-0.14679	0.60028	-0.008698	0.097809	-0.31754	-0.13611	-0.019684	-0.052795	0.42938	-0.037537	-0.010376	0.005188	-0.013885	-0.017242	-0.1944	-0.000916	0.003815	-0.0177
16.486	0.023499	0.159	-0.15182	0.022125	0.031891	-0.015106	-0.10605	0.013123	-0.1358	0.021667	-0.023499	0.15305	0.00885	-0.35019	-0.008392	0.42343	0.036011	-0.005493	-0.36423	-0.10681	0.000916	-0.063782	0.43289	-0.049286	-0.0177	-0.007019	0.057678	-0.008087	-0.56641	0.088348	0.002594	-0.016022
16.487	0.086975	0.1976	-0.19134	0.00412	0.017853	0.002594	-0.20798	0.003815	-0.10468	0.055847	0.14389	0.13321	-0.031738	-0.43655	0.0737	0.058289	0.060883	-0.06897	-0.28915	-0.099792	0.030518	-0.022125	0.38788	-0.00061	-0.008392	-0.007324	0.10162	-0.00946	-0.29495	0.28961	0.016174	-0.021667
16.488	-0.03479	0.20691	-0.028076	0.00351	-0.001984	-0.014343	-0.34958	0.014954	-0.03418	0.066223	0.31403	0.10223	-0.043182	-0.37048	0.13428	-0.11231	0.089111	-0.10284	-0.177	-0.085602	0.027618	-0.005035	0.37384	0.015869	-0.019226	-0.005188	0.068665	-0.007782	0.2153	0.31204	0.004578	-0.02243
16.489	0.001526	0.11093	-0.020294	0.004272	-0.027008	-0.038605	-0.44189	0.007935	0.17578	0.092316	0.37323	0.082855	-0.060883	-0.20783	0.47516	-0.14297	0.089417	-0.15396	-0.22156	-0.027466	0.013733	-0.012665	0.36072	-0.025787	-0.010529	-0.000763	0.027618	-0.004578	0.083466	0.18082	0.007782	-0.021667
16.49	0.022888	0.04364	-0.12253	-0.000916	-0.056458	0.032959	-0.27557	0.008087	0.26352	0.065002	0.26367	0.067444	-0.052643	-0.061035	0.16876	-0.096893	0.050201	-0.16998	-0.22675	0.022278	0.02594	0.019989	0.37079	-0.026093	-0.016327	-0.001221	-0.12863	-0.001831	-0.20493	0.084534	0.003662	-0.023499
16.491	0.013733	0.049133	-0.12985	-0.010681	-0.046234	0.058136	-0.19669	0.002899	0.24979	0.022583	-0.090027	0.068054	-0.015259	0.081329	0.41657	-0.059052	-0.002747	-0.16678	-0.16922	0.044861	0.020142	0.043945	0.38864	-0.023041	-0.018921	0.000458	-0.18631	-0.002747	-0.1091	-0.15106	0.002441	-0.01709
16.492	0.016479	0.057983	-0.088196	0.001831	-0.054932	0.03479	-0.1535	-0.005798	0.18234	-0.023346	-0.327	0.067291	0.03479	0.24414	0.67993	-0.057068	-0.005035	-0.16327	-0.16281	0.028381	0.011597	0.02243	0.40329	-0.048523	-0.004883	0	-0.20813	-0.001831	0.079346	-0.41931	-0.002441	-0.019836
16.493	0.014343	0.012207	-0.09613	0.002289	-0.019073	0.052032	-0.16205	-0.010834	0.027618	-0.083923	-0.23193	0.046692	0.082855	0.35919	0.24063	-0.040894	-0.000916	-0.12756	-0.081177	0.040436	0.011902	-0.002747	0.3714	-0.032043	-0.009766	0.001373	-0.17303	-0.006866	0.18875	-0.56595	0.000763	-0.011139
16.494	0.005646	0.011139	-0.051117	0.004578	-0.057068	0.07431	-0.18066	-0.00824	0.061035	-0.055847	-0.041962	0.035706	-0.024109	0.27863	0.044556	-0.055542	-0.013428	-0.12924	-0.03952	0.021362	0.012054	-0.000305	0.36209	-0.032196	-0.003052	0.008087	-0.18707	-0.005798	0.13275	-0.6575	0.001373	-0.016174
16.495	0.001373	0.051575	-0.10376	-0.003357	-0.11337	0.028076	-0.19745	0.005493	0.11261	0.001373	0.060883	0.019226	-0.048065	0.22766	-0.47684	-0.054474	-0.007172	-0.13382	-0.11551	0.006409	-0.003204	-0.025482	0.36362	-0.027008	-0.008545	0.011902	-0.048981	-0.014343	0.009308	-0.52811	0.001831	-0.005646
16.496	0.000305	0.10407	-0.064697	-0.000305	-0.1384	0.009613	-0.16525	0.01709	0.092773	-0.015717	-0.028229	0.003967	0.013733	0.28427	-0.2713	-0.030518	0.000305	-0.11276	-0.20187	-0.002899	-0.010986	-0.026855	0.33478	-0.014648	-0.006104	0.005341	0.25909	-0.007629	-0.055084	0.039673	0.002289	-0.007629
16.497	-0.005493	0.1178	0.007172	0.012817	-0.10117	0.008545	-0.14313	0.005951	0.14252	-0.049286	-0.16174	-0.009918	0.099335	0.20935	-0.49561	-0.0383	-0.013885	-0.066223	-0.21973	-0.020447	-0.011749	-0.012512	0.32959	-0.013428	0.000458	-0.002441	0.092468	-0.004272	0.010529	0.10315	0.000458	-0.012817
16.498	0.005341	0.15579	-0.057068	-0.006256	-0.029144	0.003052	-0.15579	-0.011749	0.27985	-0.019226	-0.13077	-0.024872	0.12955	0.027924	-0.52872	-0.032043	0.002136	-0.088043	-0.25757	-0.020294	-0.005341	-0.023804	0.34836	-0.029449	-0.004578	0.002899	0.01358	-0.008392	0.008545	-0.001678	0.00061	-0.013123
16.499	0.000763	0.15289	-0.20706	-0.000763	0.054016	0.019073	-0.18127	0.008087	0.30716	0.027466	-0.21362	-0.045471	0.075684	-0.15198	-0.46738	-0.023651	0.011292	-0.091095	-0.24857	-0.064087	0.002289	-0.041351	0.32959	-0.018616	-0.00885	0.002747	0.037384	-0.00473	0.06897	-0.10971	0.002136	-0.011139
16.5	0.011902	0.1445	-0.14526	-0.005341	0.065918	0.10941	-0.18631	0.003662	0.13092	0.013123	-0.23468	-0.045776	0.01358	-0.07782	-0.35858	-0.015106	0.039825	-0.11063	-0.075989	-0.036469	-0.029602	-0.047302	0.30746	-0.040588	-0.00885	0.008087	0.11093	-0.00351	0.11002	-0.19318	-0.000305	-0.016022
16.501	0.003967	0.20966	-0.033112	-0.014954	0.06012	0.067749	-0.17639	-0.002441	-0.088806	-0.005035	-0.091858	-0.053864	0.067902	0.059967	-0.23315	-0.016174	0.05722	-0.16876	-0.09613	-0.00473	-0.034943	-0.04364	0.29251	-0.066681	-0.004883	0.006561	0.10651	-0.003052	-0.002136	-0.20371	0.000153	-0.00824
16.502	-0.001221	0.17471	-0.007782	0.009918	0.032043	0.060272	-0.18173	-0.012207	-0.20569	-0.026398	-0.090637	-0.061646	0.086975	0.048218	-0.00061	-0.006409	0.027008	-0.23163	-0.13626	0.003204	-0.028381	-0.050659	0.24231	-0.046234	-0.007935	0.015411	-0.005341	-0.00473	-0.058136	-0.085449	-0.003357	-0.015869
16.503	0.006104	0.1889	0.15854	0.002441	0.017395	0.018311	-0.2211	-0.019531	-0.24719	0.011902	0.041046	-0.07431	-0.02243	0.085297	0.19363	-0.005035	0.024414	-0.23377	-0.058441	-0.000458	-0.028381	-0.047455	0.20447	-0.003967	-0.005798	0.012817	0.007935	-0.006561	-0.017395	-0.038757	0.005341	-0.020142
16.504	0.007477	0.2153	0.071716	0.016937	0.028229	0.10834	-0.33127	-0.011139	-0.18433	-0.009308	0.08255	-0.083618	-0.02243	0.023956	0.30518	-0.003052	0.009155	-0.26901	0.014496	0.009613	-0.018158	-0.022278	0.22446	-0.043488	0.005035	0.008698	0.003204	-0.004883	0.10269	-0.046082	0.002747	-0.014038
16.505	0.005798	0.2153	-0.055084	0.001984	0.015869	0.22018	-0.31616	0.024567	-0.088348	0.009003	-0.072632	-0.081329	0.061493	-0.068359	0.31845	-0.023956	-0.012054	-0.30136	0.016479	0.005188	-0.01709	-0.037994	0.23865	-0.016937	0.005341	-0.001068	0.010071	-0.007172	0.13306	-0.025482	0.000763	-0.0177
16.506	-0.031281	0.22919	-0.032806	-0.001068	-0.10132	0.24353	-0.1236	0.041656	-0.10788	0.045776	-0.11017	-0.094604	0.14816	-0.077057	0.30853	-0.011444	-0.030212	-0.27741	-0.003204	-0.019226	-0.012817	-0.046539	0.26215	-0.011139	0.000305	-0.002441	0.035248	-0.011139	0.07782	-0.031281	0.001526	-0.017853
16.507	-0.042419	0.20447	-0.018616	-0.011597	-0.16464	0.0737	-0.12634	0.044708	-0.12146	-0.003357	-0.10452	-0.10071	-0.023651	0.10117	0.54733	0.010834	-0.024719	-0.29648	-0.00473	0.002899	-0.004883	-0.050354	0.23636	0.01236	-0.00061	-0.001221	0.033264	-0.007172	0.055847	0.010681	0.002747	-0.013428
16.508	-0.019836	0.22492	0.060577	0.00946	-0.14557	-0.029449	-0.34531	0.021057	-0.242	-0.037994	0.13351	-0.097809	-0.10666	0.1799	-0.13168	0.006561	-0.040436	-0.29083	0.14999	0.041962	-0.003662	-0.055695	0.27679	0.013885	0.007782	-0.010681	0.006866	-0.007019	0.005035	0.038452	0.004425	-0.011597
16.509	0.011292	0.23392	0.15503	0.015259	-0.16235	-0.064392	-0.44373	0.000305	-0.093689	-0.04837	0.18219	-0.10727	0.10452	0.016174	-0.073242	0.004883	-0.004883	-0.22079	0.19974	0.082855	-0.016785	-0.057526	0.25909	0.018005	0.014648	-0.010223	0.022888	-0.011292	0.063477	-0.011597	0.006866	-0.010986
16.51	0.019989	0.15579	0.11917	0.018616	-0.1445	-0.032043	-0.37354	-0.01297	0.46722	-0.02594	0.22781	-0.10422	-0.017548	-0.13031	-0.14038	-0.00824	-0.004578	-0.19882	0.10193	0.11444	-0.021667	-0.061646	0.29068	0.00061	0.001221	-0.009308	0.054474	-0.004578	-0.12451	-0.035248	0.004883	-0.010529
16.511	0.017395	0.14664	-0.011139	0.005798	0.017548	-0.007172	-0.019531	-0.015869	0.54535	-0.045319	0.1442	-0.10727	-0.23377	-0.14572	-0.36224	0.023041	-0.02243	-0.16129	-0.088348	0.040131	-0.022278	-0.063171	0.2066	0.032501	0.024414	-0.00946	0.035553	0.000458	-0.13229	-0.04425	0.00412	-0.007935
